<svg xmlns="http://www.w3.org/2000/svg" xmlns:xlink="http://www.w3.org/1999/xlink" zoomAndPan="magnify" preserveAspectRatio="xMidYMid meet" version="1.0" viewBox="21.37 22.79 332.25 332.25"><defs><g/><clipPath id="id1"><path d="M 78.691406 80.113281 L 296.191406 80.113281 L 296.191406 297.613281 L 78.691406 297.613281 Z M 78.691406 80.113281 " clip-rule="nonzero"/></clipPath><clipPath id="id2"><path d="M 21.367188 22.792969 L 353.617188 22.792969 L 353.617188 355.042969 L 21.367188 355.042969 Z M 21.367188 22.792969 " clip-rule="nonzero"/></clipPath></defs><g clip-path="url(#id1)"><path fill="#5d5491" d="M 187.441406 297.613281 C 127.359375 297.613281 78.691406 248.609375 78.691406 188.863281 C 78.691406 129.121094 127.359375 80.113281 187.441406 80.113281 C 247.519531 80.113281 296.191406 128.785156 296.191406 188.863281 C 296.191406 248.945312 247.183594 297.613281 187.441406 297.613281 Z M 187.441406 86.828125 C 131.050781 86.828125 85.402344 132.476562 85.402344 188.863281 C 85.402344 245.253906 131.050781 290.902344 187.441406 290.902344 C 243.828125 290.902344 289.476562 245.253906 289.476562 188.863281 C 289.476562 132.476562 243.492188 86.828125 187.441406 86.828125 Z M 187.441406 86.828125 " fill-opacity="1" fill-rule="nonzero"/></g><g clip-path="url(#id2)"><path fill="#595b83" d="M 187.492188 355.042969 C 95.714844 355.042969 21.367188 280.183594 21.367188 188.917969 C 21.367188 97.652344 95.714844 22.792969 187.492188 22.792969 C 279.269531 22.792969 353.617188 97.136719 353.617188 188.917969 C 353.617188 280.695312 278.757812 355.042969 187.492188 355.042969 Z M 187.492188 33.046875 C 101.351562 33.046875 31.621094 102.777344 31.621094 188.917969 C 31.621094 275.054688 101.351562 344.789062 187.492188 344.789062 C 273.628906 344.789062 343.363281 275.054688 343.363281 188.917969 C 343.363281 102.777344 273.117188 33.046875 187.492188 33.046875 Z M 187.492188 33.046875 " fill-opacity="1" fill-rule="nonzero"/></g><path fill="#5d5491" d="M 248.015625 246.625 C 246.292969 248.304688 244.363281 249.058594 242.265625 249.058594 C 228.085938 249.058594 206.535156 214.683594 196.148438 200.375 C 192.929688 195.941406 189.441406 191.808594 186.066406 188.140625 C 184.972656 186.949219 183.894531 185.808594 182.828125 184.722656 C 180.589844 182.414062 178.453125 180.347656 176.554688 178.582031 C 173.386719 175.628906 169.230469 173.960938 164.960938 173.960938 C 164.09375 173.960938 163.21875 174.023438 162.347656 174.167969 C 160.8125 174.414062 159.324219 174.535156 157.898438 174.535156 C 136.925781 174.535156 127.058594 149.15625 124.996094 139.828125 C 122.53125 128.582031 126.667969 125.523438 126.667969 125.523438 C 126.667969 125.523438 128.484375 123.078125 134.46875 123.078125 C 136.25 123.078125 138.402344 123.292969 140.996094 123.859375 C 150.984375 126.050781 179.324219 137.140625 175.410156 161.132812 C 174.566406 166.273438 176.269531 171.507812 179.832031 175.316406 C 181.628906 177.234375 183.722656 179.398438 186.074219 181.675781 C 187.105469 182.667969 188.183594 183.6875 189.308594 184.71875 C 193.007812 188.113281 197.179688 191.621094 201.664062 194.863281 C 218.117188 206.769531 261.070312 233.34375 248.015625 246.625 " fill-opacity="1" fill-rule="nonzero"/><path fill="#5d5491" d="M 180.726562 186.625 C 181.839844 187.773438 182.992188 188.984375 184.15625 190.253906 C 181.394531 193.375 178.609375 196.769531 175.992188 200.375 C 164.070312 216.796875 137.445312 259.664062 124.128906 246.625 C 111.070312 233.34375 154.027344 206.769531 170.480469 194.863281 C 174.132812 192.226562 177.578125 189.410156 180.726562 186.625 " fill-opacity="1" fill-rule="nonzero"/><path fill="#5d5491" d="M 252.546875 134.574219 L 226.136719 163.613281 C 221.34375 168.882812 216.570312 168.054688 210.550781 168.683594 C 208.09375 168.949219 205.597656 170.105469 203.507812 171.675781 L 203.507812 171.671875 C 203.507812 171.671875 198.152344 175.890625 191.3125 182.695312 C 190.195312 181.675781 189.121094 180.660156 188.101562 179.675781 C 194.972656 172.804688 199.238281 167.410156 199.238281 167.410156 L 199.234375 167.402344 C 200.804688 165.324219 201.96875 162.828125 202.230469 160.382812 C 202.863281 154.375 202.03125 149.613281 207.304688 144.824219 L 236.410156 118.46875 C 237 117.921875 237.859375 117.910156 238.378906 118.421875 C 238.90625 118.953125 238.855469 119.851562 238.273438 120.441406 L 208.511719 150.144531 C 207.714844 150.929688 207.714844 152.191406 208.554688 152.816406 C 209.234375 153.332031 210.28125 153.171875 210.957031 152.496094 L 240.332031 123.179688 C 241.105469 122.40625 242.308594 122.347656 243.011719 123.050781 C 243.714844 123.753906 243.660156 124.945312 242.878906 125.722656 L 213.457031 155.085938 C 212.726562 155.816406 212.667969 156.945312 213.328125 157.609375 C 213.988281 158.269531 215.125 158.210938 215.859375 157.480469 L 245.277344 128.121094 C 246.058594 127.339844 247.253906 127.285156 247.957031 127.976562 C 248.660156 128.679688 248.605469 129.886719 247.828125 130.660156 L 218.449219 159.976562 C 217.777344 160.652344 217.605469 161.6875 218.125 162.375 C 218.757812 163.210938 220.015625 163.203125 220.808594 162.417969 L 250.570312 132.714844 C 251.152344 132.125 252.0625 132.078125 252.597656 132.609375 C 253.105469 133.117188 253.085938 133.976562 252.546875 134.574219 " fill-opacity="1" fill-rule="nonzero"/><g fill="#5d5491" fill-opacity="1"><g transform="translate(130.301578, 325.720761)"><g><path d="M 4.03125 -4.703125 L 7.046875 -3.84375 L 12.625 -23.65625 L 9.609375 -24.515625 L 11.15625 -29.96875 L 28.875 -24.96875 C 32.664062 -23.894531 35.3125 -22.429688 36.8125 -20.578125 C 38.3125 -18.734375 38.734375 -16.644531 38.078125 -14.3125 C 37.566406 -12.507812 36.6875 -11.226562 35.4375 -10.46875 C 34.1875 -9.71875 32.492188 -9.390625 30.359375 -9.484375 C 35.117188 -7.265625 36.859375 -3.890625 35.578125 0.640625 C 34.785156 3.460938 33.132812 5.320312 30.625 6.21875 C 28.113281 7.125 24.753906 6.984375 20.546875 5.796875 L 2.5 0.703125 Z M 23.59375 -13.5625 C 26.351562 -12.789062 28.046875 -13.519531 28.671875 -15.75 C 28.972656 -16.8125 28.84375 -17.695312 28.28125 -18.40625 C 27.71875 -19.125 26.695312 -19.691406 25.21875 -20.109375 L 21.65625 -21.125 L 19.828125 -14.640625 Z M 20.28125 -0.1875 C 23.675781 0.769531 25.757812 -0.128906 26.53125 -2.890625 C 27.300781 -5.617188 25.972656 -7.46875 22.546875 -8.4375 L 18.40625 -9.609375 L 16.09375 -1.375 Z M 20.28125 -0.1875 "/></g></g></g><g fill="#5d5491" fill-opacity="1"><g transform="translate(177.19482, 336.148783)"><g><path d="M 2.75 -0.015625 L 2.734375 -5.640625 L 5.890625 -5.640625 L 5.828125 -26.21875 L 2.671875 -26.21875 L 2.65625 -31.890625 L 18.328125 -31.9375 L 18.34375 -26.265625 L 15.140625 -26.25 L 15.203125 -5.671875 L 18.40625 -5.6875 L 18.421875 -0.0625 Z M 2.75 -0.015625 "/></g></g></g><g fill="#5d5491" fill-opacity="1"><g transform="translate(210.330536, 335.375824)"><g><path d="M 9.125 -2.609375 L 7.578125 -8.015625 L 11.03125 -9 L 5.34375 -28.9375 L -0.0625 -27.390625 L 1.65625 -21.359375 L -4.140625 -19.703125 L -7.375 -31.046875 L 23.921875 -39.984375 L 27.15625 -28.640625 L 21.375 -26.984375 L 19.65625 -33.015625 L 14.296875 -31.484375 L 19.984375 -11.546875 L 23.4375 -12.53125 L 24.984375 -7.125 Z M 9.125 -2.609375 "/></g></g></g><g fill="#5d5491" fill-opacity="1"><g transform="translate(137.553179, 84.984958)"><g><path d="M 15.578125 -3.359375 L -1.703125 -27.171875 L -4.875 -26.484375 L -5.84375 -31 L 8.8125 -34.171875 L 9.78125 -29.65625 L 6.015625 -28.84375 L 17 -12.125 L 19.96875 -31.859375 L 16.265625 -31.046875 L 15.296875 -35.5625 L 28.375 -38.390625 L 29.34375 -33.875 L 26.234375 -33.203125 L 21.03125 -4.546875 Z M 15.578125 -3.359375 "/></g></g></g><g fill="#5d5491" fill-opacity="1"><g transform="translate(178.768339, 77.597985)"><g><path d="M 2.75 0.03125 L 2.796875 -4.609375 L 6.390625 -4.578125 L 6.59375 -26.859375 L 3 -26.890625 L 3.03125 -31.515625 L 17.828125 -31.390625 L 17.796875 -26.765625 L 14.15625 -26.796875 L 13.953125 -4.515625 L 17.59375 -4.484375 L 17.546875 0.15625 Z M 2.75 0.03125 "/></g></g></g><g fill="#5d5491" fill-opacity="1"><g transform="translate(204.461634, 77.686732)"><g><path d="M 9.09375 2.046875 L 10.109375 -2.484375 L 13.8125 -1.640625 L 18.75 -23.484375 L 12.25 -24.953125 L 10.71875 -18.203125 L 5.765625 -19.328125 L 8.28125 -30.484375 L 38.46875 -23.671875 L 35.953125 -12.515625 L 31.046875 -13.625 L 32.578125 -20.375 L 26.140625 -21.828125 L 21.203125 0.015625 L 24.96875 0.875 L 23.953125 5.40625 Z M 9.09375 2.046875 "/></g></g></g></svg>